<svg xmlns="http://www.w3.org/2000/svg" xmlns:xlink="http://www.w3.org/1999/xlink" xmlns:inkscape="http://www.inkscape.org/namespaces/inkscape" version="1.1" width="810" height="810" viewBox="0 0 810 810">
<defs>
<clipPath id="clip_1">
<path transform="matrix(.24,0,0,.24,0,0)" d="M0 0H3375V3375H0Z" clip-rule="evenodd"/>
</clipPath>
<clipPath id="clip_2">
<path transform="matrix(.24,0,0,.24,0,0)" d="M0 0H3375V3375H0Z" clip-rule="evenodd"/>
</clipPath>
<clipPath id="clip_3">
<path transform="matrix(.24,0,0,.24,0,0)" d="M207.56383 990.7315H3166.9388V2384.4815H207.56383Z" clip-rule="evenodd"/>
</clipPath>
</defs>
<g clip-path="url(#clip_1)">
<path transform="matrix(.75,0,0,.75,0,0)" d="M0 0H1080V1080H0Z" fill="#ffffff"/>
</g>
<g clip-path="url(#clip_2)">
<path transform="matrix(.75,0,0,.75,0,0)" d="M0 0H1080V1080H0Z" fill="#0097b2"/>
</g>
<g clip-path="url(#clip_3)">
<path transform="matrix(.6688828,0,0,.6688828,49.822137,237.77556)" d="M306.34 34.9043H332.12V470.857H306.34Z" fill="#ffffff" fill-rule="evenodd"/>
<path transform="matrix(.6688828,0,0,.6688828,49.822137,237.77556)" d="M64.8927 155.318C67.6612 155.318 69.9055 157.563 69.9055 160.331V163.91C69.9055 166.679 67.6612 168.923 64.8927 168.923 62.1242 168.923 59.879899 166.679 59.879899 163.91V160.331C59.879899 157.563 62.1242 155.318 64.8927 155.318Z" fill="#ffffff" fill-rule="evenodd"/>
<path transform="matrix(.6688828,0,0,.6688828,49.822137,237.77556)" d="M64.8927 208.605C67.6612 208.605 69.9055 210.85 69.9055 213.618V217.197C69.9055 219.966 67.6612 222.21 64.8927 222.21 62.1242 222.21 59.879899 219.966 59.879899 217.197V213.618C59.879899 210.85 62.1242 208.605 64.8927 208.605Z" fill="#ffffff" fill-rule="evenodd"/>
<path transform="matrix(.6688828,0,0,.6688828,49.822137,237.77556)" d="M64.8927 231.23C67.6612 231.23 69.9055 233.475 69.9055 236.243V246.351C69.9055 249.119 67.6612 251.363 64.8927 251.363 62.1242 251.363 59.879899 249.119 59.879899 246.351V236.243C59.879899 233.475 62.1242 231.23 64.8927 231.23Z" fill="#ffffff" fill-rule="evenodd"/>
<path transform="matrix(.6688828,0,0,.6688828,49.822137,237.77556)" d="M64.8924 267.633C62.1239 267.633 59.8796 265.388 59.8796 262.62V262.448C59.8796 259.68 62.1239 257.435 64.8924 257.435 67.661 257.435 69.9053 259.68 69.9053 262.448V262.62C69.9053 265.388 67.661 267.633 64.8924 267.633Z" fill="#ffffff" fill-rule="evenodd"/>
<path transform="matrix(.6688828,0,0,.6688828,49.822137,237.77556)" d="M64.8927 276.481C67.6612 276.481 69.9055 278.726 69.9055 281.494V285.073C69.9055 287.842 67.6612 290.086 64.8927 290.086 62.1242 290.086 59.879899 287.842 59.879899 285.073V281.494C59.879899 278.726 62.1242 276.481 64.8927 276.481Z" fill="#ffffff" fill-rule="evenodd"/>
<path transform="matrix(.6688828,0,0,.6688828,49.822137,237.77556)" d="M64.8927 299.104C67.6612 299.104 69.9055 301.349 69.9055 304.117V318.872C69.9055 321.64 67.6612 323.885 64.8927 323.885 62.1242 323.885 59.879899 321.64 59.879899 318.872V304.117C59.879899 301.349 62.1242 299.104 64.8927 299.104Z" fill="#ffffff" fill-rule="evenodd"/>
<path transform="matrix(.6688828,0,0,.6688828,49.822137,237.77556)" d="M64.8927 125.913C67.6612 125.913 69.9055 128.157 69.9055 130.926V140.94C69.9055 143.709 67.6612 145.953 64.8927 145.953 62.1242 145.953 59.879899 143.709 59.879899 140.94V130.926C59.879899 128.157 62.1242 125.913 64.8927 125.913Z" fill="#ffffff" fill-rule="evenodd"/>
<path transform="matrix(.6688828,0,0,.6688828,49.822137,237.77556)" d="M64.8927 176.195C67.6612 176.195 69.9055 178.44 69.9055 181.208V195.263C69.9055 198.032 67.6612 200.276 64.8927 200.276 62.1242 200.276 59.879899 198.032 59.879899 195.263V181.208C59.879899 178.44 62.1242 176.195 64.8927 176.195Z" fill="#ffffff" fill-rule="evenodd"/>
<path transform="matrix(.6688828,0,0,.6688828,49.822137,237.77556)" d="M84.4178 283.281C81.6493 283.281 79.405 281.037 79.405 278.268V278.096C79.405 275.328 81.6493 273.084 84.4178 273.084 87.1863 273.084 89.4307 275.328 89.4307 278.096V278.268C89.4307 281.037 87.1863 283.281 84.4178 283.281Z" fill="#ffffff" fill-rule="evenodd"/>
<path transform="matrix(.6688828,0,0,.6688828,49.822137,237.77556)" d="M84.4178 323.887C81.6493 323.887 79.405 321.642 79.405 318.874V318.702C79.405 315.933 81.6493 313.689 84.4178 313.689 87.1863 313.689 89.4307 315.933 89.4307 318.702V318.874C89.4307 321.642 87.1863 323.887 84.4178 323.887Z" fill="#ffffff" fill-rule="evenodd"/>
<path transform="matrix(.6688828,0,0,.6688828,49.822137,237.77556)" d="M84.4181 125.913C87.1866 125.913 89.4309 128.157 89.4309 130.926V131.912C89.4309 134.68 87.1866 136.925 84.4181 136.925 81.6496 136.925 79.4053 134.68 79.4053 131.912V130.926C79.4053 128.157 81.6496 125.913 84.4181 125.913Z" fill="#ffffff" fill-rule="evenodd"/>
<path transform="matrix(.6688828,0,0,.6688828,49.822137,237.77556)" d="M84.4181 289.658C87.1866 289.658 89.4309 291.903 89.4309 294.671V302.298C89.4309 305.067 87.1866 307.311 84.4181 307.311 81.6496 307.311 79.4053 305.067 79.4053 302.298V294.671C79.4053 291.903 81.6496 289.658 84.4181 289.658Z" fill="#ffffff" fill-rule="evenodd"/>
<path transform="matrix(.6688828,0,0,.6688828,49.822137,237.77556)" d="M84.4181 145.94C87.1866 145.94 89.4309 148.185 89.4309 150.953V153.36C89.4309 156.128 87.1866 158.372 84.4181 158.372 81.6496 158.372 79.4053 156.128 79.4053 153.36V150.953C79.4053 148.185 81.6496 145.94 84.4181 145.94Z" fill="#ffffff" fill-rule="evenodd"/>
<path transform="matrix(.6688828,0,0,.6688828,49.822137,237.77556)" d="M84.4181 165.971C87.1866 165.971 89.4309 168.215 89.4309 170.984V173.39C89.4309 176.158 87.1866 178.403 84.4181 178.403 81.6496 178.403 79.4053 176.158 79.4053 173.39V170.984C79.4053 168.215 81.6496 165.971 84.4181 165.971Z" fill="#ffffff" fill-rule="evenodd"/>
<path transform="matrix(.6688828,0,0,.6688828,49.822137,237.77556)" d="M84.4181 187.844C87.1866 187.844 89.4309 190.088 89.4309 192.857V204.406C89.4309 207.174 87.1866 209.419 84.4181 209.419 81.6496 209.419 79.4053 207.174 79.4053 204.406V192.857C79.4053 190.088 81.6496 187.844 84.4181 187.844Z" fill="#ffffff" fill-rule="evenodd"/>
<path transform="matrix(.6688828,0,0,.6688828,49.822137,237.77556)" d="M84.4181 216.392C87.1866 216.392 89.4309 218.636 89.4309 221.404V226.783C89.4309 229.552 87.1866 231.796 84.4181 231.796 81.6496 231.796 79.4053 229.552 79.4053 226.783V221.404C79.4053 218.636 81.6496 216.392 84.4181 216.392Z" fill="#ffffff" fill-rule="evenodd"/>
<path transform="matrix(.6688828,0,0,.6688828,49.822137,237.77556)" d="M84.4181 238.648C87.1866 238.648 89.4309 240.893 89.4309 243.661V262.622C89.4309 265.39 87.1866 267.635 84.4181 267.635 81.6496 267.635 79.4053 265.39 79.4053 262.622V243.661C79.4053 240.893 81.6496 238.648 84.4181 238.648Z" fill="#ffffff" fill-rule="evenodd"/>
<path transform="matrix(.6688828,0,0,.6688828,49.822137,237.77556)" d="M162.52 155.318C165.288 155.318 167.533 157.563 167.533 160.331V163.91C167.533 166.679 165.288 168.923 162.52 168.923 159.751 168.923 157.507 166.679 157.507 163.91V160.331C157.507 157.563 159.751 155.318 162.52 155.318Z" fill="#ffffff" fill-rule="evenodd"/>
<path transform="matrix(.6688828,0,0,.6688828,49.822137,237.77556)" d="M162.52 208.605C165.288 208.605 167.533 210.85 167.533 213.618V217.197C167.533 219.966 165.288 222.21 162.52 222.21 159.751 222.21 157.507 219.966 157.507 217.197V213.618C157.507 210.85 159.751 208.605 162.52 208.605Z" fill="#ffffff" fill-rule="evenodd"/>
<path transform="matrix(.6688828,0,0,.6688828,49.822137,237.77556)" d="M162.52 231.23C165.288 231.23 167.533 233.475 167.533 236.243V246.351C167.533 249.119 165.288 251.363 162.52 251.363 159.751 251.363 157.507 249.119 157.507 246.351V236.243C157.507 233.475 159.751 231.23 162.52 231.23Z" fill="#ffffff" fill-rule="evenodd"/>
<path transform="matrix(.6688828,0,0,.6688828,49.822137,237.77556)" d="M162.52 267.633C159.752 267.633 157.508 265.388 157.508 262.62V262.448C157.508 259.68 159.752 257.435 162.52 257.435 165.289 257.435 167.533 259.68 167.533 262.448V262.62C167.533 265.388 165.289 267.633 162.52 267.633Z" fill="#ffffff" fill-rule="evenodd"/>
<path transform="matrix(.6688828,0,0,.6688828,49.822137,237.77556)" d="M162.52 276.481C165.288 276.481 167.533 278.726 167.533 281.494V285.073C167.533 287.842 165.288 290.086 162.52 290.086 159.751 290.086 157.507 287.842 157.507 285.073V281.494C157.507 278.726 159.751 276.481 162.52 276.481Z" fill="#ffffff" fill-rule="evenodd"/>
<path transform="matrix(.6688828,0,0,.6688828,49.822137,237.77556)" d="M162.52 299.104C165.288 299.104 167.533 301.349 167.533 304.117V318.872C167.533 321.64 165.288 323.885 162.52 323.885 159.751 323.885 157.507 321.64 157.507 318.872V304.117C157.507 301.349 159.751 299.104 162.52 299.104Z" fill="#ffffff" fill-rule="evenodd"/>
<path transform="matrix(.6688828,0,0,.6688828,49.822137,237.77556)" d="M162.52 125.913C165.288 125.913 167.533 128.157 167.533 130.926V140.94C167.533 143.709 165.288 145.953 162.52 145.953 159.751 145.953 157.507 143.709 157.507 140.94V130.926C157.507 128.157 159.751 125.913 162.52 125.913Z" fill="#ffffff" fill-rule="evenodd"/>
<path transform="matrix(.6688828,0,0,.6688828,49.822137,237.77556)" d="M162.52 176.195C165.288 176.195 167.533 178.44 167.533 181.208V195.263C167.533 198.032 165.288 200.276 162.52 200.276 159.751 200.276 157.507 198.032 157.507 195.263V181.208C157.507 178.44 159.751 176.195 162.52 176.195Z" fill="#ffffff" fill-rule="evenodd"/>
<path transform="matrix(.6688828,0,0,.6688828,49.822137,237.77556)" d="M182.044 283.281C179.275 283.281 177.031 281.037 177.031 278.268V278.096C177.031 275.328 179.275 273.084 182.044 273.084 184.812 273.084 187.057 275.328 187.057 278.096V278.268C187.057 281.037 184.812 283.281 182.044 283.281Z" fill="#ffffff" fill-rule="evenodd"/>
<path transform="matrix(.6688828,0,0,.6688828,49.822137,237.77556)" d="M182.044 323.887C179.275 323.887 177.031 321.642 177.031 318.874V318.702C177.031 315.933 179.275 313.689 182.044 313.689 184.812 313.689 187.057 315.933 187.057 318.702V318.874C187.057 321.642 184.812 323.887 182.044 323.887Z" fill="#ffffff" fill-rule="evenodd"/>
<path transform="matrix(.6688828,0,0,.6688828,49.822137,237.77556)" d="M182.044 125.913C184.813 125.913 187.057 128.157 187.057 130.926V131.912C187.057 134.68 184.813 136.925 182.044 136.925 179.276 136.925 177.031 134.68 177.031 131.912V130.926C177.031 128.157 179.276 125.913 182.044 125.913Z" fill="#ffffff" fill-rule="evenodd"/>
<path transform="matrix(.6688828,0,0,.6688828,49.822137,237.77556)" d="M182.044 289.658C184.813 289.658 187.057 291.903 187.057 294.671V302.298C187.057 305.067 184.813 307.311 182.044 307.311 179.276 307.311 177.031 305.067 177.031 302.298V294.671C177.031 291.903 179.276 289.658 182.044 289.658Z" fill="#ffffff" fill-rule="evenodd"/>
<path transform="matrix(.6688828,0,0,.6688828,49.822137,237.77556)" d="M182.044 145.94C184.813 145.94 187.057 148.185 187.057 150.953V153.36C187.057 156.128 184.813 158.372 182.044 158.372 179.276 158.372 177.031 156.128 177.031 153.36V150.953C177.031 148.185 179.276 145.94 182.044 145.94Z" fill="#ffffff" fill-rule="evenodd"/>
<path transform="matrix(.6688828,0,0,.6688828,49.822137,237.77556)" d="M182.044 165.971C184.813 165.971 187.057 168.215 187.057 170.984V173.39C187.057 176.158 184.813 178.403 182.044 178.403 179.276 178.403 177.031 176.158 177.031 173.39V170.984C177.031 168.215 179.276 165.971 182.044 165.971Z" fill="#ffffff" fill-rule="evenodd"/>
<path transform="matrix(.6688828,0,0,.6688828,49.822137,237.77556)" d="M182.044 187.844C184.813 187.844 187.057 190.088 187.057 192.857V204.406C187.057 207.174 184.813 209.419 182.044 209.419 179.276 209.419 177.031 207.174 177.031 204.406V192.857C177.031 190.088 179.276 187.844 182.044 187.844Z" fill="#ffffff" fill-rule="evenodd"/>
<path transform="matrix(.6688828,0,0,.6688828,49.822137,237.77556)" d="M182.044 216.392C184.813 216.392 187.057 218.636 187.057 221.404V226.783C187.057 229.552 184.813 231.796 182.044 231.796 179.276 231.796 177.031 229.552 177.031 226.783V221.404C177.031 218.636 179.276 216.392 182.044 216.392Z" fill="#ffffff" fill-rule="evenodd"/>
<path transform="matrix(.6688828,0,0,.6688828,49.822137,237.77556)" d="M182.044 238.648C184.813 238.648 187.057 240.893 187.057 243.661V262.622C187.057 265.39 184.813 267.635 182.044 267.635 179.276 267.635 177.031 265.39 177.031 262.622V243.661C177.031 240.893 179.276 238.648 182.044 238.648Z" fill="#ffffff" fill-rule="evenodd"/>
<path transform="matrix(.6688828,0,0,.6688828,49.822137,237.77556)" d="M142.993 126.404C145.762 126.404 148.006 128.649 148.006 131.417V132.403C148.006 135.171 145.762 137.416 142.993 137.416 140.225 137.416 137.98 135.171 137.98 132.403V131.417C137.98 128.649 140.225 126.404 142.993 126.404Z" fill="#ffffff" fill-rule="evenodd"/>
<path transform="matrix(.6688828,0,0,.6688828,49.822137,237.77556)" d="M142.993 234.17C140.225 234.17 137.98 231.926 137.98 229.157V229.071C137.98 226.302 140.225 224.058 142.993 224.058 145.762 224.058 148.006 226.302 148.006 229.071V229.157C148.006 231.926 145.762 234.17 142.993 234.17Z" fill="#ffffff" fill-rule="evenodd"/>
<path transform="matrix(.6688828,0,0,.6688828,49.822137,237.77556)" d="M142.993 308.951C140.225 308.951 137.98 306.707 137.98 303.938V303.852C137.98 301.084 140.225 298.839 142.993 298.839 145.762 298.839 148.006 301.084 148.006 303.852V303.938C148.006 306.707 145.762 308.951 142.993 308.951Z" fill="#ffffff" fill-rule="evenodd"/>
<path transform="matrix(.6688828,0,0,.6688828,49.822137,237.77556)" d="M142.993 323.712C140.225 323.712 137.98 321.468 137.98 318.699V318.613C137.98 315.844 140.225 313.6 142.993 313.6 145.762 313.6 148.006 315.844 148.006 318.613V318.699C148.006 321.468 145.762 323.712 142.993 323.712Z" fill="#ffffff" fill-rule="evenodd"/>
<path transform="matrix(.6688828,0,0,.6688828,49.822137,237.77556)" d="M142.993 143.728C145.762 143.728 148.006 145.972 148.006 148.74V150.245C148.006 153.014 145.762 155.258 142.993 155.258 140.225 155.258 137.98 153.014 137.98 150.245V148.74C137.98 145.972 140.225 143.728 142.993 143.728Z" fill="#ffffff" fill-rule="evenodd"/>
<path transform="matrix(.6688828,0,0,.6688828,49.822137,237.77556)" d="M142.993 161.504C145.762 161.504 148.006 163.748 148.006 166.517V173.883C148.006 176.652 145.762 178.896 142.993 178.896 140.225 178.896 137.98 176.652 137.98 173.883V166.517C137.98 163.748 140.225 161.504 142.993 161.504Z" fill="#ffffff" fill-rule="evenodd"/>
<path transform="matrix(.6688828,0,0,.6688828,49.822137,237.77556)" d="M142.993 185.053C145.762 185.053 148.006 187.297 148.006 190.066V191.98C148.006 194.748 145.762 196.992 142.993 196.992 140.225 196.992 137.98 194.748 137.98 191.98V190.066C137.98 187.297 140.225 185.053 142.993 185.053Z" fill="#ffffff" fill-rule="evenodd"/>
<path transform="matrix(.6688828,0,0,.6688828,49.822137,237.77556)" d="M142.993 203.487C145.762 203.487 148.006 205.732 148.006 208.5V212.333C148.006 215.102 145.762 217.346 142.993 217.346 140.225 217.346 137.98 215.102 137.98 212.333V208.5C137.98 205.732 140.225 203.487 142.993 203.487Z" fill="#ffffff" fill-rule="evenodd"/>
<path transform="matrix(.6688828,0,0,.6688828,49.822137,237.77556)" d="M142.993 278.834C145.762 278.834 148.006 281.078 148.006 283.847V287.68C148.006 290.449 145.762 292.693 142.993 292.693 140.225 292.693 137.98 290.449 137.98 287.68V283.847C137.98 281.078 140.225 278.834 142.993 278.834Z" fill="#ffffff" fill-rule="evenodd"/>
<path transform="matrix(.6688828,0,0,.6688828,49.822137,237.77556)" d="M142.993 241.771C145.762 241.771 148.006 244.016 148.006 246.784V266.765C148.006 269.533 145.762 271.778 142.993 271.778 140.225 271.778 137.98 269.533 137.98 266.765V246.784C137.98 244.016 140.225 241.771 142.993 241.771Z" fill="#ffffff" fill-rule="evenodd"/>
<path transform="matrix(.6688828,0,0,.6688828,49.822137,237.77556)" d="M123.469 269.097C120.7 269.097 118.456 266.852 118.456 264.084V263.912C118.456 261.143 120.7 258.899 123.469 258.899 126.237 258.899 128.481 261.143 128.481 263.912V264.084C128.481 266.852 126.237 269.097 123.469 269.097Z" fill="#ffffff" fill-rule="evenodd"/>
<path transform="matrix(.6688828,0,0,.6688828,49.822137,237.77556)" d="M123.469 323.887C120.7 323.887 118.456 321.642 118.456 318.874V318.702C118.456 315.933 120.7 313.689 123.469 313.689 126.237 313.689 128.481 315.933 128.481 318.702V318.874C128.481 321.642 126.237 323.887 123.469 323.887Z" fill="#ffffff" fill-rule="evenodd"/>
<path transform="matrix(.6688828,0,0,.6688828,49.822137,237.77556)" d="M123.469 125.913C126.237 125.913 128.482 128.157 128.482 130.926V135.48C128.482 138.248 126.237 140.492 123.469 140.492 120.7 140.492 118.456 138.248 118.456 135.48V130.926C118.456 128.157 120.7 125.913 123.469 125.913Z" fill="#ffffff" fill-rule="evenodd"/>
<path transform="matrix(.6688828,0,0,.6688828,49.822137,237.77556)" d="M123.469 295.114C126.237 295.114 128.482 297.359 128.482 300.127V303.941C128.482 306.71 126.237 308.954 123.469 308.954 120.7 308.954 118.456 306.71 118.456 303.941V300.127C118.456 297.359 120.7 295.114 123.469 295.114Z" fill="#ffffff" fill-rule="evenodd"/>
<path transform="matrix(.6688828,0,0,.6688828,49.822137,237.77556)" d="M123.469 286.507C120.7 286.507 118.456 284.263 118.456 281.494V281.408C118.456 278.639 120.7 276.395 123.469 276.395 126.237 276.395 128.481 278.639 128.481 281.408V281.494C128.481 284.263 126.237 286.507 123.469 286.507Z" fill="#ffffff" fill-rule="evenodd"/>
<path transform="matrix(.6688828,0,0,.6688828,49.822137,237.77556)" d="M123.469 147.837C126.237 147.837 128.482 150.081 128.482 152.85V153.361C128.482 156.13 126.237 158.374 123.469 158.374 120.7 158.374 118.456 156.13 118.456 153.361V152.85C118.456 150.081 120.7 147.837 123.469 147.837Z" fill="#ffffff" fill-rule="evenodd"/>
<path transform="matrix(.6688828,0,0,.6688828,49.822137,237.77556)" d="M123.469 165.971C126.237 165.971 128.482 168.215 128.482 170.984V183.218C128.482 185.987 126.237 188.231 123.469 188.231 120.7 188.231 118.456 185.987 118.456 183.218V170.984C118.456 168.215 120.7 165.971 123.469 165.971Z" fill="#ffffff" fill-rule="evenodd"/>
<path transform="matrix(.6688828,0,0,.6688828,49.822137,237.77556)" d="M123.469 195.864C126.237 195.864 128.482 198.109 128.482 200.877V208.502C128.482 211.271 126.237 213.515 123.469 213.515 120.7 213.515 118.456 211.271 118.456 208.502V200.877C118.456 198.109 120.7 195.864 123.469 195.864Z" fill="#ffffff" fill-rule="evenodd"/>
<path transform="matrix(.6688828,0,0,.6688828,49.822137,237.77556)" d="M123.469 219.817C126.237 219.817 128.482 222.062 128.482 224.83V226.784C128.482 229.552 126.237 231.797 123.469 231.797 120.7 231.797 118.456 229.552 118.456 226.784V224.83C118.456 222.062 120.7 219.817 123.469 219.817Z" fill="#ffffff" fill-rule="evenodd"/>
<path transform="matrix(.6688828,0,0,.6688828,49.822137,237.77556)" d="M123.469 238.648C126.237 238.648 128.482 240.893 128.482 243.661V245.223C128.482 247.991 126.237 250.236 123.469 250.236 120.7 250.236 118.456 247.991 118.456 245.223V243.661C118.456 240.893 120.7 238.648 123.469 238.648Z" fill="#ffffff" fill-rule="evenodd"/>
<path transform="matrix(.6688828,0,0,.6688828,49.822137,237.77556)" d="M103.943 294.482C106.712 294.482 108.956 292.238 108.956 289.47V285.89C108.956 283.122 106.712 280.878 103.943 280.878 101.175 280.878 98.9307 283.122 98.9307 285.89V289.47C98.9307 292.238 101.175 294.482 103.943 294.482Z" fill="#ffffff" fill-rule="evenodd"/>
<path transform="matrix(.6688828,0,0,.6688828,49.822137,237.77556)" d="M103.943 241.194C106.712 241.194 108.956 238.95 108.956 236.182V232.602C108.956 229.834 106.712 227.59 103.943 227.59 101.175 227.59 98.9307 229.834 98.9307 232.602V236.182C98.9307 238.95 101.175 241.194 103.943 241.194Z" fill="#ffffff" fill-rule="evenodd"/>
<path transform="matrix(.6688828,0,0,.6688828,49.822137,237.77556)" d="M103.943 218.569C106.712 218.569 108.956 216.325 108.956 213.557V203.449C108.956 200.681 106.712 198.436 103.943 198.436 101.175 198.436 98.9307 200.681 98.9307 203.449V213.557C98.9307 216.325 101.175 218.569 103.943 218.569Z" fill="#ffffff" fill-rule="evenodd"/>
<path transform="matrix(.6688828,0,0,.6688828,49.822137,237.77556)" d="M103.943 182.165C101.175 182.165 98.9304 184.409 98.9304 187.178V187.35C98.9304 190.118 101.175 192.363 103.943 192.363 106.712 192.363 108.956 190.118 108.956 187.35V187.178C108.956 184.409 106.712 182.165 103.943 182.165Z" fill="#ffffff" fill-rule="evenodd"/>
<path transform="matrix(.6688828,0,0,.6688828,49.822137,237.77556)" d="M103.943 173.319C106.712 173.319 108.956 171.075 108.956 168.307V164.727C108.956 161.959 106.712 159.715 103.943 159.715 101.175 159.715 98.9307 161.959 98.9307 164.727V168.307C98.9307 171.075 101.175 173.319 103.943 173.319Z" fill="#ffffff" fill-rule="evenodd"/>
<path transform="matrix(.6688828,0,0,.6688828,49.822137,237.77556)" d="M103.943 150.693C106.712 150.693 108.956 148.449 108.956 145.681V130.926C108.956 128.157 106.712 125.913 103.943 125.913 101.175 125.913 98.9307 128.157 98.9307 130.926V145.681C98.9307 148.449 101.175 150.693 103.943 150.693Z" fill="#ffffff" fill-rule="evenodd"/>
<path transform="matrix(.6688828,0,0,.6688828,49.822137,237.77556)" d="M103.943 323.887C106.712 323.887 108.956 321.642 108.956 318.874V308.86C108.956 306.091 106.712 303.847 103.943 303.847 101.175 303.847 98.9307 306.091 98.9307 308.86V318.874C98.9307 321.642 101.175 323.887 103.943 323.887Z" fill="#ffffff" fill-rule="evenodd"/>
<path transform="matrix(.6688828,0,0,.6688828,49.822137,237.77556)" d="M103.943 273.604C106.712 273.604 108.956 271.36 108.956 268.592V254.537C108.956 251.768 106.712 249.524 103.943 249.524 101.175 249.524 98.9307 251.768 98.9307 254.537V268.592C98.9307 271.36 101.175 273.604 103.943 273.604Z" fill="#ffffff" fill-rule="evenodd"/>
<path transform="matrix(.6688828,0,0,.6688828,49.822137,237.77556)" d="M201.569 294.482C204.338 294.482 206.582 292.238 206.582 289.47V285.89C206.582 283.122 204.338 280.878 201.569 280.878 198.801 280.878 196.557 283.122 196.557 285.89V289.47C196.557 292.238 198.801 294.482 201.569 294.482Z" fill="#ffffff" fill-rule="evenodd"/>
<path transform="matrix(.6688828,0,0,.6688828,49.822137,237.77556)" d="M201.569 241.194C204.338 241.194 206.582 238.95 206.582 236.182V232.602C206.582 229.834 204.338 227.59 201.569 227.59 198.801 227.59 196.557 229.834 196.557 232.602V236.182C196.557 238.95 198.801 241.194 201.569 241.194Z" fill="#ffffff" fill-rule="evenodd"/>
<path transform="matrix(.6688828,0,0,.6688828,49.822137,237.77556)" d="M201.569 218.569C204.338 218.569 206.582 216.325 206.582 213.557V203.449C206.582 200.681 204.338 198.436 201.569 198.436 198.801 198.436 196.557 200.681 196.557 203.449V213.557C196.557 216.325 198.801 218.569 201.569 218.569Z" fill="#ffffff" fill-rule="evenodd"/>
<path transform="matrix(.6688828,0,0,.6688828,49.822137,237.77556)" d="M201.569 182.165C198.801 182.165 196.556 184.409 196.556 187.178V187.35C196.556 190.118 198.801 192.363 201.569 192.363 204.338 192.363 206.582 190.118 206.582 187.35V187.178C206.582 184.409 204.338 182.165 201.569 182.165Z" fill="#ffffff" fill-rule="evenodd"/>
<path transform="matrix(.6688828,0,0,.6688828,49.822137,237.77556)" d="M201.569 173.319C204.338 173.319 206.582 171.075 206.582 168.307V164.727C206.582 161.959 204.338 159.715 201.569 159.715 198.801 159.715 196.557 161.959 196.557 164.727V168.307C196.557 171.075 198.801 173.319 201.569 173.319Z" fill="#ffffff" fill-rule="evenodd"/>
<path transform="matrix(.6688828,0,0,.6688828,49.822137,237.77556)" d="M201.569 150.693C204.338 150.693 206.582 148.449 206.582 145.681V130.926C206.582 128.157 204.338 125.913 201.569 125.913 198.801 125.913 196.557 128.157 196.557 130.926V145.681C196.557 148.449 198.801 150.693 201.569 150.693Z" fill="#ffffff" fill-rule="evenodd"/>
<path transform="matrix(.6688828,0,0,.6688828,49.822137,237.77556)" d="M201.569 323.887C204.338 323.887 206.582 321.642 206.582 318.874V308.86C206.582 306.091 204.338 303.847 201.569 303.847 198.801 303.847 196.557 306.091 196.557 308.86V318.874C196.557 321.642 198.801 323.887 201.569 323.887Z" fill="#ffffff" fill-rule="evenodd"/>
<path transform="matrix(.6688828,0,0,.6688828,49.822137,237.77556)" d="M201.569 273.604C204.338 273.604 206.582 271.36 206.582 268.592V254.537C206.582 251.768 204.338 249.524 201.569 249.524 198.801 249.524 196.557 251.768 196.557 254.537V268.592C196.557 271.36 198.801 273.604 201.569 273.604Z" fill="#ffffff" fill-rule="evenodd"/>
<path transform="matrix(.6688828,0,0,.6688828,49.822137,237.77556)" d="M37.4195 71.811C27.063 71.8111 19.1625 71.8112 16.1197 71.8112 10.1872 71.8112 5.37793 67.0019 5.37793 61.0694 5.37793 55.1369 10.1872 50.3276 16.1197 50.3276 19.1621 50.3276 27.0621 50.3275 37.4181 50.3275 68.7157 50.3273 122.446 50.3269 132.32 50.3274L143.061 50.3279V100.789H121.578V71.8108C101.739 71.8106 62.422 71.8109 37.4195 71.811Z" fill="#ffffff" fill-rule="evenodd"/>
<path transform="matrix(.6688828,0,0,.6688828,49.822137,237.77556)" d="M48.0889 95.2739C48.0889 92.1099 50.6538 89.5449 53.8178 89.5449H212.643C215.807 89.5449 218.372 92.1099 218.372 95.2739V112.686C218.372 115.85 215.807 118.415 212.643 118.415H53.8178C50.6538 118.415 48.0889 115.85 48.0889 112.686V95.2739Z" fill="#ffffff"/>
<path transform="matrix(.6688828,0,0,.6688828,49.822137,237.77556)" d="M.100586 .55859407H206.097C268.044 .55859407 356.866 16.4232 420.318 61.454L425.748 65.3076V439.923L419.746 443.717C418.869 444.272 417.968 444.843 417.043 445.43 387.232 464.347 332.065 499.353 222.677 499.353H.100586V.55859407ZM25.8809 26.3389V473.572H222.677C321.079 473.572 371.368 443.827 399.968 425.734V78.7489C342.791 40.7449 263.253 26.3389 206.097 26.3389H25.8809Z" fill="#ffffff" fill-rule="evenodd"/>
<path transform="matrix(.6688828,0,0,.6688828,49.822137,237.77556)" d="M322.95 222.634V282.254H347.17V222.634H322.95ZM318.654 208.312C313.117 208.312 308.628 212.8 308.628 218.337V286.55C308.628 292.087 313.117 296.576 318.654 296.576H351.466C357.003 296.576 361.492 292.087 361.492 286.55V218.337C361.492 212.8 357.003 208.312 351.466 208.312H318.654Z" fill="#ffffff" fill-rule="evenodd"/>
<path transform="matrix(.6688828,0,0,.6688828,49.822137,237.77556)" d="M245.453 484.252C245.453 490.185 240.644 494.994 234.711 494.994 211.835 494.994 197.005 476.331 197.005 459.913V451.112H218.489V459.913C218.489 464.891 224.121 473.511 234.711 473.511 240.644 473.511 245.453 478.32 245.453 484.252Z" fill="#ffffff" fill-rule="evenodd"/>
<path transform="matrix(.6688828,0,0,.6688828,49.822137,237.77556)" d="M250.94 380.224C250.94 357.169 266.628 350.791 271.865 350.791V329.308C255.282 329.308 229.457 344.791 229.457 380.224V393.486C229.457 401.186 229.293 412.374 224.326 421.625 221.98 425.994 218.56 429.898 213.349 432.795 208.07 435.73 200.344 437.967 188.928 437.967H16.0966V459.451H188.928C203.147 459.451 214.647 456.654 223.789 451.572 232.997 446.452 239.191 439.354 243.254 431.788 250.489 418.312 250.917 403.303 250.939 395.354 250.94 395.354 250.939 395.354 250.939 395.354L250.94 394.89C250.941 394.553 250.941 394.23 250.94 393.922 250.94 393.773 250.94 393.628 250.94 393.486V380.224Z" fill="#ffffff" fill-rule="evenodd"/>
<path transform="matrix(.6688828,0,0,.6688828,49.822137,237.77556)" d="M236.137 363.001C234.196 364.704 231.961 366.666 229.173 368.974 214.66 380.991 194.64 382.168 184.743 382.168H23.0904C17.1579 382.168 12.3486 377.359 12.3486 371.427 12.3486 365.494 17.1579 360.685 23.0904 360.685H184.743C194.17 360.685 207.256 359.229 215.472 352.427 217.021 351.144 218.609 349.751 220.248 348.313 225.161 344.005 230.532 339.294 236.687 335.939 245.779 330.983 256.658 328.537 272.92 328.537 278.853 328.537 283.662 333.346 283.662 339.279 283.662 345.211 278.853 350.021 272.92 350.021 258.858 350.021 251.876 352.127 246.97 354.802 243.038 356.945 240.245 359.396 236.137 363.001Z" fill="#ffffff" fill-rule="evenodd"/>
<path transform="matrix(.6688828,0,0,.6688828,49.822137,237.77556)" d="M228.39 350.121C213.657 351.827 195.444 353.936 172.827 353.936H18.2867C12.3542 353.936 7.54492 349.127 7.54492 343.194 7.54492 337.262 12.3542 332.453 18.2867 332.453H172.827C194.147 332.453 211.202 330.481 225.935 328.778 227.577 328.588 229.19 328.402 230.777 328.222 246.115 326.482 260.474 325.086 273.661 328.686 279.385 330.249 282.758 336.155 281.195 341.878 279.633 347.601 273.727 350.974 268.004 349.411 259.44 347.074 249.216 347.751 233.199 349.568 231.639 349.745 230.036 349.931 228.39 350.121Z" fill="#ffffff" fill-rule="evenodd"/>
<path transform="matrix(.6688828,0,0,.6688828,49.822137,237.77556)" d="M261.133 340.031C261.133 334.104 265.938 329.299 271.865 329.299 277.792 329.299 282.597 334.104 282.597 340.031 282.597 345.958 277.792 350.763 271.865 350.763 265.938 350.763 261.133 345.958 261.133 340.031Z" fill="#ffffff"/>
<path transform="matrix(.6688828,0,0,.6688828,49.822137,237.77556)" d="M508.853 430.239C496.806 430.239 488.918 429.378 485.189 427.657 481.747 426.223 480.026 422.494 480.026 416.47V317.512H488.201C492.217 317.512 495.802 316.221 498.958 313.639 502.113 311.058 504.838 305.465 507.132 296.859 509.427 287.967 511.578 274.63 513.586 256.846 515.594 238.775 517.602 214.681 519.61 184.563 521.618 154.158 523.912 116.009 526.494 70.1149 526.781 67.2465 527.354 65.2386 528.215 64.0913 529.075 62.944 531.657 62.2269 535.96 61.94 540.262 61.6532 547.433 61.5098 557.472 61.5098H644.384V317.512H665.897V416.47C665.897 422.494 664.032 426.223 660.303 427.657 656.861 429.378 649.117 430.239 637.07 430.239 634.201 418.765 631.476 407.722 628.895 397.109 626.313 386.783 624.592 375.309 623.732 362.689H522.191C521.331 375.309 519.61 386.783 517.028 397.109 514.734 407.722 512.009 418.765 508.853 430.239ZM545.425 317.512H596.195V106.687H572.531C570.81 134.51 568.946 159.465 566.938 181.551 565.217 203.637 563.352 223.286 561.345 240.496 559.337 257.419 557.042 272.191 554.461 284.812 551.879 297.433 548.867 308.333 545.425 317.512Z" fill="#ffffff"/>
<path transform="matrix(.6688828,0,0,.6688828,49.822137,237.77556)" d="M733.309 364.84C722.409 365.127 713.23 363.262 705.773 359.246 698.315 354.944 694.586 348.49 694.586 339.885 694.586 337.303 695.16 333.575 696.307 328.698 697.454 323.822 699.462 318.372 702.331 312.349 706.633 315.217 711.079 317.655 715.668 319.663 720.545 321.384 724.417 322.245 727.285 322.245 731.301 322.245 734.169 320.523 735.89 317.081 737.612 313.353 738.902 308.333 739.763 302.023 737.468 295.712 734.313 285.816 730.297 272.335 726.568 258.854 722.409 243.508 717.82 226.298 713.23 209.087 708.641 191.59 704.052 173.806 699.749 156.023 695.733 139.529 692.004 124.327 688.276 108.838 685.264 96.3605 682.969 86.8948 681.822 82.0186 680.961 78.1463 680.388 75.2779 679.814 72.4096 679.527 70.1149 679.527 68.3939 679.527 65.5255 680.531 63.6611 682.539 62.8005 684.547 61.94 687.845 61.5098 692.435 61.5098H726.855L743.635 139.386C747.938 160.038 751.093 179.113 753.101 196.61 755.395 213.82 757.26 229.596 758.694 243.938 759.555 229.596 761.276 213.82 763.857 196.61 766.725 179.4 770.024 160.325 773.753 139.386L784.94 77.4292C786.374 71.9793 788.095 67.9636 790.103 65.3821 792.11 62.8005 795.839 61.5098 801.289 61.5098H835.71L785.37 295.999C782.501 309.767 779.346 321.814 775.904 332.14 772.749 342.18 768.016 350.068 761.706 355.804 755.395 361.254 745.93 364.266 733.309 364.84Z" fill="#ffffff"/>
<path transform="matrix(.6688828,0,0,.6688828,49.822137,237.77556)" d="M853.3 362.689V70.1149C853.3 67.2465 853.873 65.2386 855.021 64.0913 856.168 62.944 860.04 62.2269 866.638 61.94 873.522 61.6532 885.139 61.5098 901.488 61.5098V317.512H933.327V70.1149C933.327 67.2465 933.901 65.2386 935.048 64.0913 936.482 62.944 940.498 62.2269 947.095 61.94 953.693 61.6532 965.166 61.5098 981.516 61.5098V317.512H1013.35V70.1149C1013.35 67.2465 1013.93 65.2386 1015.08 64.0913 1016.51 62.944 1020.53 62.2269 1027.12 61.94 1033.72 61.6532 1045.19 61.5098 1061.54 61.5098V340.315C1061.54 345.765 1061.26 350.068 1060.68 353.223 1060.11 356.378 1058.39 358.673 1055.52 360.107 1052.65 361.254 1047.78 361.971 1040.89 362.258 1034.29 362.545 1024.68 362.689 1012.06 362.689H853.3Z" fill="#ffffff"/>
<path transform="matrix(.6688828,0,0,.6688828,49.822137,237.77556)" d="M698.677 429.102C696.538 429.102 694.7 428.828 693.164 428.279 691.628 427.731 690.366 426.716 689.378 425.235 688.391 423.753 687.65 421.696 687.156 419.063 686.717 416.374 686.498 412.891 686.498 408.612 686.498 403.674 686.937 399.724 687.815 396.762 688.692 393.799 689.845 391.577 691.271 390.096 692.697 388.56 694.261 387.545 695.962 387.051 697.717 386.557 699.445 386.311 701.146 386.311 703.176 386.311 704.822 386.695 706.083 387.463 707.345 388.176 707.976 389.191 707.976 390.507 707.976 391.111 707.921 391.852 707.812 392.729 707.702 393.552 707.482 394.457 707.153 395.445 706.495 395.171 705.672 394.924 704.685 394.704 703.752 394.485 702.847 394.375 701.969 394.375 701.256 394.375 700.543 394.54 699.829 394.869 699.116 395.143 698.485 395.774 697.937 396.762 697.388 397.694 696.949 399.093 696.62 400.958 696.291 402.824 696.126 405.32 696.126 408.447 696.126 410.806 696.208 412.808 696.373 414.454 696.538 416.045 696.812 417.335 697.196 418.322 697.635 419.255 698.211 419.94 698.924 420.379 699.637 420.763 700.543 420.955 701.64 420.955 702.518 420.955 703.45 420.846 704.438 420.626 705.425 420.407 706.248 420.132 706.906 419.803 707.181 420.846 707.373 421.751 707.482 422.519 707.592 423.232 707.647 423.945 707.647 424.659 707.647 426.03 706.797 427.127 705.096 427.95 703.45 428.718 701.311 429.102 698.677 429.102Z" fill="#ffffff"/>
<path transform="matrix(.6688828,0,0,.6688828,49.822137,237.77556)" d="M732.418 429.102C730.882 429.102 729.401 428.965 727.974 428.691 726.603 428.416 725.368 427.84 724.271 426.963 723.174 426.085 722.296 424.796 721.638 423.095 721.034 421.394 720.733 419.118 720.733 416.265 720.733 413.467 720.98 411.19 721.473 409.435 722.022 407.624 722.735 406.225 723.613 405.238 724.546 404.25 725.56 403.592 726.658 403.263 727.81 402.879 728.989 402.687 730.196 402.687 730.8 402.687 731.65 402.769 732.747 402.933 733.845 403.098 734.75 403.427 735.463 403.921 735.463 403.921 735.463 403.619 735.463 403.016 735.463 402.357 735.463 401.589 735.463 400.712 735.463 399.834 735.463 399.011 735.463 398.243 735.463 397.53 735.353 396.954 735.134 396.515 734.914 396.076 734.558 395.747 734.064 395.527 733.57 395.308 732.884 395.198 732.007 395.198 730.471 395.198 728.77 395.363 726.905 395.692 725.094 396.021 723.503 396.432 722.132 396.926 721.638 395.994 721.309 395.033 721.144 394.046 720.98 393.058 720.897 392.236 720.897 391.577 720.897 391.083 720.98 390.562 721.144 390.014 721.364 389.41 721.665 388.971 722.049 388.697 722.653 388.258 724.024 387.764 726.164 387.216 728.304 386.612 731.019 386.311 734.311 386.311 738.096 386.311 740.757 387.051 742.293 388.532 743.884 390.014 744.68 392.62 744.68 396.35V400.218C744.68 403.345 744.68 406.554 744.68 409.846 744.68 413.138 744.652 416.237 744.597 419.145 744.542 421.998 744.433 424.439 744.268 426.469 742.897 427.292 741.196 427.923 739.166 428.362 737.136 428.855 734.887 429.102 732.418 429.102ZM733.076 421.531C733.46 421.531 733.872 421.477 734.311 421.367 734.75 421.202 735.079 420.983 735.298 420.708 735.353 420.105 735.381 419.2 735.381 417.993 735.435 416.731 735.463 415.387 735.463 413.961 735.463 412.534 735.463 411.245 735.463 410.093 735.189 409.819 734.832 409.654 734.393 409.599 734.009 409.489 733.653 409.435 733.323 409.435 732.884 409.435 732.473 409.544 732.089 409.764 731.76 409.928 731.458 410.257 731.184 410.751 730.964 411.245 730.772 411.931 730.608 412.808 730.498 413.631 730.443 414.701 730.443 416.018 730.443 417.005 730.471 417.856 730.525 418.569 730.635 419.227 730.772 419.803 730.937 420.297 731.156 420.736 731.431 421.065 731.76 421.285 732.144 421.449 732.583 421.531 733.076 421.531Z" fill="#ffffff"/>
<path transform="matrix(.6688828,0,0,.6688828,49.822137,237.77556)" d="M760.635 428.279V388.779C760.635 388.231 760.745 387.847 760.964 387.627 761.184 387.408 761.952 387.271 763.269 387.216 764.585 387.161 766.835 387.133 770.016 387.133V403.756H775.859V388.779C775.859 388.231 775.996 387.847 776.271 387.627 776.545 387.408 777.34 387.271 778.657 387.216 779.974 387.161 782.168 387.133 785.24 387.133V426.634C785.24 427.182 785.131 427.566 784.911 427.786 784.692 428.005 783.924 428.142 782.607 428.197 781.345 428.252 779.096 428.279 775.859 428.279V411.574H770.016V426.634C770.016 427.182 769.879 427.566 769.605 427.786 769.386 428.005 768.617 428.142 767.301 428.197 766.039 428.252 763.817 428.279 760.635 428.279Z" fill="#ffffff"/>
<path transform="matrix(.6688828,0,0,.6688828,49.822137,237.77556)" d="M807.361 428.279V394.951H799.626C799.626 392.702 799.653 391.029 799.708 389.931 799.763 388.779 799.928 388.039 800.202 387.71 800.476 387.325 800.915 387.133 801.519 387.133H824.231C824.231 389.438 824.204 391.166 824.149 392.318 824.094 393.415 823.93 394.128 823.655 394.457 823.436 394.787 823.024 394.951 822.421 394.951H816.578V426.634C816.578 427.182 816.441 427.566 816.167 427.786 815.947 428.005 815.207 428.142 813.945 428.197 812.683 428.252 810.489 428.279 807.361 428.279Z" fill="#ffffff"/>
<path transform="matrix(.6688828,0,0,.6688828,49.822137,237.77556)" d="M848.005 429.102C846.14 429.102 844.412 428.828 842.821 428.279 841.285 427.676 839.941 426.661 838.789 425.235 837.691 423.808 836.814 421.833 836.155 419.31 835.552 416.786 835.25 413.577 835.25 409.681 835.25 404.689 835.634 400.657 836.402 397.585 837.17 394.512 838.213 392.181 839.529 390.59 840.901 388.944 842.464 387.819 844.22 387.216 845.975 386.612 847.813 386.311 849.733 386.311 853.025 386.311 855.604 387.353 857.469 389.438 859.334 391.522 860.267 394.951 860.267 399.724 860.267 401.699 860.184 403.756 860.02 405.896 859.855 407.981 859.554 409.819 859.115 411.41 857.524 411.739 855.686 411.986 853.601 412.15 851.516 412.315 849.487 412.452 847.512 412.562 845.536 412.616 843.891 412.644 842.574 412.644 841.312 412.644 840.681 412.644 840.681 412.644L840.846 405.32C840.846 405.32 841.23 405.347 841.998 405.402 842.821 405.402 843.808 405.402 844.96 405.402 846.113 405.402 847.237 405.347 848.334 405.238 849.432 405.128 850.282 404.936 850.885 404.662 851.05 404.168 851.16 403.51 851.215 402.687 851.269 401.809 851.297 401.041 851.297 400.382 851.297 397.749 851.077 396.076 850.639 395.363 850.255 394.649 849.541 394.293 848.499 394.293 847.786 394.293 847.182 394.595 846.689 395.198 846.195 395.802 845.811 396.734 845.537 397.996 845.262 399.203 845.07 400.739 844.96 402.604 844.851 404.415 844.796 406.582 844.796 409.105 844.796 411.026 844.851 412.699 844.96 414.125 845.125 415.497 845.372 416.621 845.701 417.499 846.085 418.377 846.634 419.035 847.347 419.474 848.115 419.913 849.075 420.132 850.227 420.132 851.708 420.132 853.162 419.94 854.589 419.556 856.07 419.118 857.524 418.541 858.95 417.828 859.224 418.651 859.416 419.666 859.526 420.873 859.636 422.025 859.691 423.068 859.691 424 859.691 425.097 859.142 426.03 858.045 426.798 857.002 427.566 855.604 428.142 853.848 428.526 852.092 428.91 850.145 429.102 848.005 429.102Z" fill="#ffffff"/>
<path transform="matrix(.6688828,0,0,.6688828,49.822137,237.77556)" d="M872.754 428.279 883.123 405.402 887.896 402.028C887.896 402.028 888.061 401.452 888.39 400.3 888.774 399.093 889.24 397.694 889.789 396.103 890.337 394.457 890.859 392.976 891.352 391.66L892.505 388.697C892.724 388.148 893.026 387.792 893.41 387.627 893.794 387.408 894.644 387.271 895.961 387.216 897.277 387.161 899.472 387.133 902.544 387.133L891.517 410.422 887.978 411.41C887.978 411.41 887.841 411.848 887.567 412.726 887.293 413.604 886.936 414.729 886.497 416.1 886.113 417.472 885.674 418.898 885.181 420.379 884.687 421.861 884.22 423.177 883.782 424.329L882.959 426.551C882.739 427.1 882.355 427.511 881.807 427.786 881.313 428.005 880.38 428.142 879.009 428.197 877.637 428.252 875.552 428.279 872.754 428.279ZM892.093 428.279 890.447 424.329C889.953 423.177 889.432 421.888 888.884 420.462 888.39 418.98 887.896 417.554 887.402 416.182 886.964 414.811 886.58 413.686 886.25 412.808 885.976 411.876 885.839 411.41 885.839 411.41L883.864 410.175 873.989 388.615C873.769 388.121 873.742 387.792 873.907 387.627 874.126 387.408 874.949 387.271 876.375 387.216 877.802 387.161 880.243 387.133 883.699 387.133L885.51 391.66C886.003 392.921 886.525 394.375 887.073 396.021 887.622 397.612 888.061 399.011 888.39 400.218 888.774 401.425 888.966 402.028 888.966 402.028L892.34 403.839 902.38 426.304C902.709 426.963 902.764 427.429 902.544 427.703 902.325 427.978 901.447 428.142 899.911 428.197 898.43 428.252 895.824 428.279 892.093 428.279Z" fill="#ffffff"/>
<path transform="matrix(.6688828,0,0,.6688828,49.822137,237.77556)" d="M917.102 428.279V388.779C917.102 388.231 917.212 387.847 917.431 387.627 917.651 387.408 918.419 387.271 919.735 387.216 921.052 387.161 923.301 387.133 926.483 387.133V403.756H932.326V388.779C932.326 388.231 932.463 387.847 932.737 387.627 933.012 387.408 933.807 387.271 935.124 387.216 936.441 387.161 938.635 387.133 941.707 387.133V426.634C941.707 427.182 941.598 427.566 941.378 427.786 941.159 428.005 940.391 428.142 939.074 428.197 937.812 428.252 935.563 428.279 932.326 428.279V411.574H926.483V426.634C926.483 427.182 926.346 427.566 926.072 427.786 925.852 428.005 925.084 428.142 923.768 428.197 922.506 428.252 920.284 428.279 917.102 428.279Z" fill="#ffffff"/>
<path transform="matrix(.6688828,0,0,.6688828,49.822137,237.77556)" d="M970.247 429.102C966.955 429.102 964.404 428.609 962.594 427.621 960.838 426.634 959.604 425.235 958.891 423.424 958.178 421.559 957.821 419.337 957.821 416.758V388.779C957.821 388.231 957.931 387.847 958.15 387.627 958.424 387.408 959.22 387.271 960.537 387.216 961.908 387.161 964.185 387.133 967.367 387.133V417.335C967.367 418.157 967.422 418.871 967.531 419.474 967.696 420.023 967.97 420.462 968.354 420.791 968.738 421.065 969.314 421.202 970.082 421.202 970.631 421.202 971.18 421.12 971.728 420.955 972.277 420.791 972.771 420.516 973.21 420.132V388.779C973.21 388.231 973.319 387.847 973.539 387.627 973.813 387.408 974.581 387.271 975.843 387.216 977.105 387.161 979.299 387.133 982.426 387.133V425.975C981.11 426.743 979.354 427.456 977.16 428.115 975.02 428.773 972.716 429.102 970.247 429.102Z" fill="#ffffff"/>
<path transform="matrix(.6688828,0,0,.6688828,49.822137,237.77556)" d="M1019.24 428.444C1018.31 428.444 1017.35 428.416 1016.36 428.362 1015.43 428.307 1014.42 428.252 1013.32 428.197L1012.66 417.581C1012.5 414.564 1012.14 412.589 1011.59 411.656 1011.04 410.669 1009.86 410.175 1008.05 410.175H1007.72V426.798C1007.72 427.292 1007.59 427.648 1007.31 427.868 1007.09 428.087 1006.35 428.224 1005.09 428.279 1003.83 428.279 1001.69 428.279 998.671 428.279V388.615C998.671 388.121 998.78 387.792 999 387.627 999.274 387.408 1000.04 387.271 1001.3 387.216 1002.57 387.161 1004.71 387.133 1007.72 387.133V402.111H1008.46C1009.34 402.111 1010.08 401.836 1010.69 401.288 1011.34 400.739 1011.78 399.779 1012 398.407L1014.06 387.627C1015.16 387.353 1016.17 387.188 1017.1 387.133 1018.09 387.024 1018.94 386.969 1019.65 386.969 1021.25 386.969 1022.29 387.106 1022.78 387.38 1023.28 387.6 1023.39 388.121 1023.11 388.944L1020.31 399.806C1019.93 401.233 1019.38 402.385 1018.67 403.263 1018.01 404.14 1017.3 404.799 1016.53 405.238 1018.12 406.061 1019.38 407.487 1020.31 409.517 1021.3 411.492 1021.9 413.906 1022.12 416.758L1022.86 426.798C1022.86 427.456 1022.64 427.895 1022.21 428.115 1021.82 428.334 1020.83 428.444 1019.24 428.444Z" fill="#ffffff"/>
<path transform="matrix(.6688828,0,0,.6688828,49.822137,237.77556)" d="M1048.57 429.102C1047.03 429.102 1045.55 428.965 1044.12 428.691 1042.75 428.416 1041.52 427.84 1040.42 426.963 1039.32 426.085 1038.44 424.796 1037.79 423.095 1037.18 421.394 1036.88 419.118 1036.88 416.265 1036.88 413.467 1037.13 411.19 1037.62 409.435 1038.17 407.624 1038.88 406.225 1039.76 405.238 1040.69 404.25 1041.71 403.592 1042.81 403.263 1043.96 402.879 1045.14 402.687 1046.34 402.687 1046.95 402.687 1047.8 402.769 1048.9 402.933 1049.99 403.098 1050.9 403.427 1051.61 403.921 1051.61 403.921 1051.61 403.619 1051.61 403.016 1051.61 402.357 1051.61 401.589 1051.61 400.712 1051.61 399.834 1051.61 399.011 1051.61 398.243 1051.61 397.53 1051.5 396.954 1051.28 396.515 1051.06 396.076 1050.71 395.747 1050.21 395.527 1049.72 395.308 1049.03 395.198 1048.15 395.198 1046.62 395.198 1044.92 395.363 1043.05 395.692 1041.24 396.021 1039.65 396.432 1038.28 396.926 1037.79 395.994 1037.46 395.033 1037.29 394.046 1037.13 393.058 1037.05 392.236 1037.05 391.577 1037.05 391.083 1037.13 390.562 1037.29 390.014 1037.51 389.41 1037.81 388.971 1038.2 388.697 1038.8 388.258 1040.17 387.764 1042.31 387.216 1044.45 386.612 1047.17 386.311 1050.46 386.311 1054.24 386.311 1056.91 387.051 1058.44 388.532 1060.03 390.014 1060.83 392.62 1060.83 396.35V400.218C1060.83 403.345 1060.83 406.554 1060.83 409.846 1060.83 413.138 1060.8 416.237 1060.75 419.145 1060.69 421.998 1060.58 424.439 1060.42 426.469 1059.04 427.292 1057.34 427.923 1055.31 428.362 1053.28 428.855 1051.04 429.102 1048.57 429.102ZM1049.22 421.531C1049.61 421.531 1050.02 421.477 1050.46 421.367 1050.9 421.202 1051.23 420.983 1051.45 420.708 1051.5 420.105 1051.53 419.2 1051.53 417.993 1051.58 416.731 1051.61 415.387 1051.61 413.961 1051.61 412.534 1051.61 411.245 1051.61 410.093 1051.34 409.819 1050.98 409.654 1050.54 409.599 1050.16 409.489 1049.8 409.435 1049.47 409.435 1049.03 409.435 1048.62 409.544 1048.24 409.764 1047.91 409.928 1047.61 410.257 1047.33 410.751 1047.11 411.245 1046.92 411.931 1046.76 412.808 1046.65 413.631 1046.59 414.701 1046.59 416.018 1046.59 417.005 1046.62 417.856 1046.67 418.569 1046.78 419.227 1046.92 419.803 1047.09 420.297 1047.3 420.736 1047.58 421.065 1047.91 421.285 1048.29 421.449 1048.73 421.531 1049.22 421.531Z" fill="#ffffff"/>
</g>
<path transform="matrix(1,0,0,-1,0,817.92)" d="M49.81532 245.69559H760.1847V580.1444H49.81532Z" fill-opacity="0"/>
</svg>
